<?xml version="1.0" encoding="utf-8"?>
<!-- Generator: Adobe Illustrator 23.0.1, SVG Export Plug-In . SVG Version: 6.00 Build 0)  -->
<svg version="1.1" xmlns="http://www.w3.org/2000/svg" xmlns:xlink="http://www.w3.org/1999/xlink" x="0px" y="0px"
	 viewBox="0 0 800 800" style="enable-background:new 0 0 800 800;" xml:space="preserve">
<style type="text/css">
	.st0{fill:#EEEEE2;}
	.st1{fill:#769656;}
</style>
<g id="tiles">
	<g id="a8">
		<rect class="st0" width="100" height="100"/>
	</g>
	<g id="b8">
		<rect x="100" class="st1" width="100" height="100"/>
	</g>
	<g id="c8">
		<rect x="200" class="st0" width="100" height="100"/>
	</g>
	<g id="d8">
		<rect x="300" class="st1" width="100" height="100"/>
	</g>
	<g id="e8">
		<rect x="400" class="st0" width="100" height="100"/>
	</g>
	<g id="f8">
		<rect x="500" class="st1" width="100" height="100"/>
	</g>
	<g id="g8">
		<rect x="600" class="st0" width="100" height="100"/>
	</g>
	<g id="h8">
		<rect x="700" class="st1" width="100" height="100"/>
	</g>
	<g id="a7">
		<rect y="100" class="st1" width="100" height="100"/>
	</g>
	<g id="b7">
		<rect x="100" y="100" class="st0" width="100" height="100"/>
	</g>
	<g id="c7">
		<rect x="200" y="100" class="st1" width="100" height="100"/>
	</g>
	<g id="d7">
		<rect x="300" y="100" class="st0" width="100" height="100"/>
	</g>
	<g id="e7">
		<rect x="400" y="100" class="st1" width="100" height="100"/>
	</g>
	<g id="f7">
		<rect x="500" y="100" class="st0" width="100" height="100"/>
	</g>
	<g id="g7">
		<rect x="600" y="100" class="st1" width="100" height="100"/>
	</g>
	<g id="h7">
		<rect x="700" y="100" class="st0" width="100" height="100"/>
	</g>
	<g id="a6">
		<rect y="200" class="st0" width="100" height="100"/>
	</g>
	<g id="b6">
		<rect x="100" y="200" class="st1" width="100" height="100"/>
	</g>
	<g id="c6">
		<rect x="200" y="200" class="st0" width="100" height="100"/>
	</g>
	<g id="d6">
		<rect x="300" y="200" class="st1" width="100" height="100"/>
	</g>
	<g id="e6">
		<rect x="400" y="200" class="st0" width="100" height="100"/>
	</g>
	<g id="f6">
		<rect x="500" y="200" class="st1" width="100" height="100"/>
	</g>
	<g id="g6">
		<rect x="600" y="200" class="st0" width="100" height="100"/>
	</g>
	<g id="h6">
		<rect x="700" y="200" class="st1" width="100" height="100"/>
	</g>
	<g id="a5">
		<rect y="300" class="st1" width="100" height="100"/>
	</g>
	<g id="b5">
		<rect x="100" y="300" class="st0" width="100" height="100"/>
	</g>
	<g id="c5">
		<rect x="200" y="300" class="st1" width="100" height="100"/>
	</g>
	<g id="d5">
		<rect x="300" y="300" class="st0" width="100" height="100"/>
	</g>
	<g id="e5">
		<rect x="400" y="300" class="st1" width="100" height="100"/>
	</g>
	<g id="f5">
		<rect x="500" y="300" class="st0" width="100" height="100"/>
	</g>
	<g id="g5">
		<rect x="600" y="300" class="st1" width="100" height="100"/>
	</g>
	<g id="h5">
		<rect x="700" y="300" class="st0" width="100" height="100"/>
	</g>
	<g id="a4">
		<rect y="400" class="st0" width="100" height="100"/>
	</g>
	<g id="b4">
		<rect x="100" y="400" class="st1" width="100" height="100"/>
	</g>
	<g id="c4">
		<rect x="200" y="400" class="st0" width="100" height="100"/>
	</g>
	<g id="d4">
		<rect x="300" y="400" class="st1" width="100" height="100"/>
	</g>
	<g id="e4">
		<rect x="400" y="400" class="st0" width="100" height="100"/>
	</g>
	<g id="f4">
		<rect x="500" y="400" class="st1" width="100" height="100"/>
	</g>
	<g id="g4">
		<rect x="600" y="400" class="st0" width="100" height="100"/>
	</g>
	<g id="h4">
		<rect x="700" y="400" class="st1" width="100" height="100"/>
	</g>
	<g id="a3">
		<rect y="500" class="st1" width="100" height="100"/>
	</g>
	<g id="b3">
		<rect x="100" y="500" class="st0" width="100" height="100"/>
	</g>
	<g id="c3">
		<rect x="200" y="500" class="st1" width="100" height="100"/>
	</g>
	<g id="d3">
		<rect x="300" y="500" class="st0" width="100" height="100"/>
	</g>
	<g id="e3">
		<rect x="400" y="500" class="st1" width="100" height="100"/>
	</g>
	<g id="f3">
		<rect x="500" y="500" class="st0" width="100" height="100"/>
	</g>
	<g id="g3">
		<rect x="600" y="500" class="st1" width="100" height="100"/>
	</g>
	<g id="h3">
		<rect x="700" y="500" class="st0" width="100" height="100"/>
	</g>
	<g id="a2">
		<rect y="600" class="st0" width="100" height="100"/>
	</g>
	<g id="b2">
		<rect x="100" y="600" class="st1" width="100" height="100"/>
	</g>
	<g id="c2">
		<rect x="200" y="600" class="st0" width="100" height="100"/>
	</g>
	<g id="d2">
		<rect x="300" y="600" class="st1" width="100" height="100"/>
	</g>
	<g id="e2">
		<rect x="400" y="600" class="st0" width="100" height="100"/>
	</g>
	<g id="f2">
		<rect x="500" y="600" class="st1" width="100" height="100"/>
	</g>
	<g id="g2">
		<rect x="600" y="600" class="st0" width="100" height="100"/>
	</g>
	<g id="h2">
		<rect x="700" y="600" class="st1" width="100" height="100"/>
	</g>
	<g id="a1">
		<rect y="700" class="st1" width="100" height="100"/>
	</g>
	<g id="b1">
		<rect x="100" y="700" class="st0" width="100" height="100"/>
	</g>
	<g id="c1">
		<rect x="200" y="700" class="st1" width="100" height="100"/>
	</g>
	<g id="d1">
		<rect x="300" y="700" class="st0" width="100" height="100"/>
	</g>
	<g id="e1">
		<rect x="400" y="700" class="st1" width="100" height="100"/>
	</g>
	<g id="f1">
		<rect x="500" y="700" class="st0" width="100" height="100"/>
	</g>
	<g id="g1">
		<rect x="600" y="700" class="st1" width="100" height="100"/>
	</g>
	<g id="h1">
		<rect x="700" y="700" class="st0" width="100" height="100"/>
	</g>
</g>
<g id="legend">
	<g>
		<path class="st0" d="M87.4,790.2l-0.2-1.7h-0.1c-0.8,1.1-2.2,2-4.1,2c-2.7,0-4.1-1.9-4.1-3.9c0-3.3,2.9-5.1,8.1-5v-0.3
			c0-1.1-0.3-3.1-3.1-3.1c-1.3,0-2.6,0.4-3.5,1l-0.6-1.6c1.1-0.7,2.7-1.2,4.5-1.2c4.1,0,5.2,2.8,5.2,5.5v5.1c0,1.2,0.1,2.3,0.2,3.2
			H87.4z M87,783.3c-2.7-0.1-5.7,0.4-5.7,3.1c0,1.6,1.1,2.4,2.3,2.4c1.8,0,2.9-1.1,3.3-2.3c0.1-0.3,0.1-0.5,0.1-0.8V783.3z"/>
	</g>
	<g>
		<path class="st0" d="M14.5,709.3L14.5,709.3l-3.2,1.7l-0.5-1.9l4-2.1h2.1v18.2h-2.4V709.3z"/>
	</g>
	<g>
		<path class="st0" d="M9.7,523.3c0.7,0.4,2.3,1.1,4,1.1c3.2,0,4.1-2,4.1-3.5c0-2.5-2.3-3.6-4.7-3.6h-1.4v-1.8h1.4
			c1.8,0,4.1-0.9,4.1-3.1c0-1.5-0.9-2.7-3.2-2.7c-1.5,0-2.9,0.6-3.6,1.2l-0.6-1.8c1-0.7,2.8-1.4,4.8-1.4c3.6,0,5.2,2.1,5.2,4.3
			c0,1.9-1.1,3.5-3.4,4.3v0.1c2.2,0.4,4.1,2.1,4.1,4.7c0,2.9-2.3,5.5-6.6,5.5c-2,0-3.8-0.6-4.7-1.2L9.7,523.3z"/>
	</g>
	<g>
		<path class="st0" d="M20,309H13l-0.7,4.7c0.4-0.1,0.8-0.1,1.5-0.1c1.4,0,2.8,0.3,3.9,1c1.4,0.8,2.6,2.4,2.6,4.7
			c0,3.6-2.8,6.2-6.8,6.2c-2,0-3.7-0.6-4.5-1.1l0.6-1.9c0.8,0.4,2.2,1,3.9,1c2.3,0,4.3-1.5,4.3-3.9c0-2.4-1.6-4-5.2-4
			c-1,0-1.8,0.1-2.5,0.2l1.2-8.7H20V309z"/>
	</g>
	<g>
		<path class="st0" d="M20.9,110v1.6L13,128.2h-2.5l7.9-16.1V112H9.4v-2H20.9z"/>
	</g>
	<g>
		<path class="st1" d="M8.9,20.5c0-2.3,1.4-3.9,3.6-4.9l0-0.1c-2-1-2.9-2.5-2.9-4.1c0-2.9,2.4-4.8,5.6-4.8c3.5,0,5.3,2.2,5.3,4.5
			c0,1.5-0.8,3.2-3,4.3v0.1c2.3,0.9,3.7,2.5,3.7,4.7c0,3.2-2.7,5.3-6.2,5.3C11.2,25.5,8.9,23.2,8.9,20.5z M18.7,20.4
			c0-2.2-1.5-3.3-4-4c-2.1,0.6-3.3,2-3.3,3.8c-0.1,1.8,1.3,3.5,3.6,3.5C17.3,23.7,18.7,22.3,18.7,20.4z M11.9,11.3
			c0,1.8,1.4,2.8,3.5,3.4c1.6-0.5,2.8-1.7,2.8-3.3c0-1.5-0.9-3-3.1-3C13,8.4,11.9,9.8,11.9,11.3z"/>
	</g>
	<g>
		<path class="st1" d="M19.5,208.7c-0.5,0-1.1,0-1.8,0.1c-3.9,0.6-5.9,3.5-6.3,6.5h0.1c0.9-1.1,2.4-2.1,4.4-2.1
			c3.2,0,5.5,2.3,5.5,5.9c0,3.3-2.3,6.4-6,6.4c-3.9,0-6.4-3-6.4-7.8c0-3.6,1.3-6.4,3.1-8.2c1.5-1.5,3.5-2.4,5.8-2.7
			c0.7-0.1,1.3-0.1,1.8-0.1V208.7z M18.8,219.2c0-2.6-1.5-4.2-3.8-4.2c-1.5,0-2.9,0.9-3.5,2.2c-0.2,0.3-0.3,0.6-0.3,1.1
			c0.1,3,1.4,5.2,4,5.2C17.4,223.6,18.8,221.8,18.8,219.2z"/>
	</g>
	<g>
		<path class="st1" d="M16.7,425.2v-5H8.3v-1.6l8.1-11.6H19v11.3h2.5v1.9H19v5H16.7z M16.7,418.3v-6.1c0-1,0-1.9,0.1-2.9h-0.1
			c-0.6,1.1-1,1.8-1.5,2.7l-4.5,6.2v0.1H16.7z"/>
	</g>
	<g>
		<path class="st1" d="M9.1,627.2v-1.5l1.9-1.9c4.6-4.4,6.7-6.8,6.8-9.5c0-1.8-0.9-3.6-3.6-3.6c-1.7,0-3,0.8-3.9,1.5l-0.8-1.7
			c1.3-1.1,3.1-1.8,5.2-1.8c3.9,0,5.6,2.7,5.6,5.3c0,3.4-2.4,6.1-6.3,9.8l-1.5,1.3v0.1h8.2v2H9.1z"/>
	</g>
	<g>
		<path class="st1" d="M176.8,790.2c0.1-0.9,0.1-2.3,0.1-3.5v-16.4h2.4v8.5h0.1c0.9-1.5,2.4-2.5,4.6-2.5c3.4,0,5.7,2.8,5.7,6.9
			c0,4.8-3.1,7.3-6.1,7.3c-2,0-3.5-0.8-4.5-2.5H179l-0.1,2.2H176.8z M179.3,784.7c0,0.3,0.1,0.6,0.1,0.9c0.5,1.7,1.9,2.9,3.7,2.9
			c2.6,0,4.1-2.1,4.1-5.2c0-2.7-1.4-5-4-5c-1.7,0-3.2,1.1-3.8,3c-0.1,0.3-0.1,0.6-0.1,1V784.7z"/>
	</g>
	<g>
		<path class="st1" d="M389.6,770.3v16.4c0,1.2,0,2.6,0.1,3.5h-2.2l-0.1-2.4h-0.1c-0.8,1.5-2.4,2.7-4.6,2.7c-3.3,0-5.8-2.8-5.8-6.9
			c0-4.5,2.8-7.3,6.1-7.3c2.1,0,3.5,1,4.1,2.1h0.1v-8.1H389.6z M387.1,782.1c0-0.3,0-0.7-0.1-1c-0.4-1.6-1.7-2.9-3.6-2.9
			c-2.5,0-4.1,2.2-4.1,5.2c0,2.7,1.3,5,4,5c1.7,0,3.2-1.1,3.6-2.9c0.1-0.3,0.1-0.7,0.1-1.1V782.1z"/>
	</g>
	<g>
		<path class="st1" d="M586.1,790.2v-11.7h-1.9v-1.9h1.9V776c0-1.9,0.4-3.6,1.6-4.7c0.9-0.9,2.2-1.3,3.3-1.3c0.9,0,1.6,0.2,2.1,0.4
			l-0.3,1.9c-0.4-0.2-0.9-0.3-1.6-0.3c-2.1,0-2.6,1.8-2.6,3.9v0.7h3.3v1.9h-3.3v11.7H586.1z"/>
	</g>
	<g>
		<path class="st1" d="M779.9,770.3h2.5v8.5h0.1c0.4-0.7,1-1.3,1.8-1.7c0.7-0.4,1.6-0.7,2.5-0.7c1.8,0,4.7,1.1,4.7,5.8v8.1H789v-7.8
			c0-2.2-0.8-4-3.1-4c-1.6,0-2.9,1.1-3.3,2.5c-0.1,0.3-0.2,0.7-0.2,1.2v8.2h-2.5V770.3z"/>
	</g>
	<g>
		<path class="st0" d="M290.6,789.7c-0.6,0.3-2.1,0.8-3.9,0.8c-4.1,0-6.7-2.8-6.7-6.9c0-4.2,2.9-7.2,7.3-7.2c1.5,0,2.7,0.4,3.4,0.7
			l-0.6,1.9c-0.6-0.3-1.5-0.6-2.9-0.6c-3.1,0-4.8,2.3-4.8,5.1c0,3.1,2,5.1,4.7,5.1c1.4,0,2.3-0.4,3-0.7L290.6,789.7z"/>
	</g>
	<g>
		<path class="st0" d="M480.3,783.8c0.1,3.3,2.2,4.7,4.6,4.7c1.8,0,2.8-0.3,3.8-0.7l0.4,1.8c-0.9,0.4-2.4,0.8-4.5,0.8
			c-4.2,0-6.7-2.7-6.7-6.8c0-4.1,2.4-7.3,6.4-7.3c4.4,0,5.6,3.9,5.6,6.4c0,0.5-0.1,0.9-0.1,1.1H480.3z M487.5,782.1
			c0-1.6-0.6-4-3.4-4c-2.5,0-3.6,2.3-3.8,4H487.5z"/>
	</g>
	<g>
		<path class="st0" d="M690.6,776.6c-0.1,1-0.1,2.1-0.1,3.7v7.9c0,3.1-0.6,5-1.9,6.2c-1.3,1.2-3.2,1.6-4.9,1.6
			c-1.6,0-3.4-0.4-4.5-1.1l0.6-1.9c0.9,0.6,2.3,1.1,4,1.1c2.5,0,4.4-1.3,4.4-4.7v-1.5H688c-0.8,1.3-2.2,2.3-4.3,2.3
			c-3.4,0-5.8-2.9-5.8-6.6c0-4.6,3-7.2,6.1-7.2c2.4,0,3.6,1.2,4.2,2.4h0.1l0.1-2H690.6z M688,782c0-0.4,0-0.8-0.1-1.1
			c-0.4-1.4-1.7-2.6-3.4-2.6c-2.4,0-4,2-4,5.1c0,2.7,1.3,4.9,4,4.9c1.5,0,2.9-1,3.4-2.5c0.1-0.4,0.2-0.9,0.2-1.3V782z"/>
	</g>
</g>
</svg>
